<svg width="32" height="32" viewBox="0 0 32 32" xmlns="http://www.w3.org/2000/svg">
  <!-- Background circle -->
  <circle cx="16" cy="16" r="15" fill="#f6ad55" stroke="#e69500" stroke-width="2"/>
  
  <!-- Building/Skyscraper icon representing Dubai business -->
  <g fill="#ffffff">
    <!-- Main building -->
    <rect x="12" y="8" width="8" height="16" rx="1"/>
    <!-- Side building -->
    <rect x="8" y="12" width="4" height="12" rx="0.5"/>
    <!-- Tall building -->
    <rect x="20" y="6" width="4" height="18" rx="0.5"/>
    
    <!-- Windows -->
    <rect x="13" y="10" width="1.5" height="1.5" fill="#f6ad55"/>
    <rect x="15.5" y="10" width="1.5" height="1.5" fill="#f6ad55"/>
    <rect x="17.5" y="10" width="1.5" height="1.5" fill="#f6ad55"/>
    
    <rect x="13" y="13" width="1.5" height="1.5" fill="#f6ad55"/>
    <rect x="15.5" y="13" width="1.5" height="1.5" fill="#f6ad55"/>
    <rect x="17.5" y="13" width="1.5" height="1.5" fill="#f6ad55"/>
    
    <rect x="13" y="16" width="1.5" height="1.5" fill="#f6ad55"/>
    <rect x="15.5" y="16" width="1.5" height="1.5" fill="#f6ad55"/>
    <rect x="17.5" y="16" width="1.5" height="1.5" fill="#f6ad55"/>
    
    <!-- Side building windows -->
    <rect x="9" y="14" width="1" height="1" fill="#f6ad55"/>
    <rect x="10.5" y="14" width="1" height="1" fill="#f6ad55"/>
    <rect x="9" y="17" width="1" height="1" fill="#f6ad55"/>
    <rect x="10.5" y="17" width="1" height="1" fill="#f6ad55"/>
    
    <!-- Tall building windows -->
    <rect x="21" y="8" width="1" height="1" fill="#f6ad55"/>
    <rect x="22.5" y="8" width="1" height="1" fill="#f6ad55"/>
    <rect x="21" y="11" width="1" height="1" fill="#f6ad55"/>
    <rect x="22.5" y="11" width="1" height="1" fill="#f6ad55"/>
    <rect x="21" y="14" width="1" height="1" fill="#f6ad55"/>
    <rect x="22.5" y="14" width="1" height="1" fill="#f6ad55"/>
    <rect x="21" y="17" width="1" height="1" fill="#f6ad55"/>
    <rect x="22.5" y="17" width="1" height="1" fill="#f6ad55"/>
  </g>
</svg>